/* XPM */
static char *_699e046ddf04d4ea65fd32ac0540e50rYJpI6AUbdT64Im2[] = {
/* columns rows colors chars-per-pixel */
"32 32 9 1 ",
"  c #102619",
". c #1F492B",
"X c #25442D",
"o c #2F6232",
"O c #2E6D31",
"+ c #4C863D",
"@ c #529740",
"# c #65954C",
"$ c #70A853",
/* pixels */
"$$$$$$$$$$$$$$$$$$$$$$$$$$$$$$$$",
"$$$$$$$$$$$$$$$$$$$$$$$$$$$$$$$$",
"$$$$$$$$$$$$$$$$$$$$$$$$$$$$$$$$",
"$$$$$$$$$$$$$$$$$$$$$$$$$$$$$$$$",
"$$$$$$$$$$$$$$$$$$$OO$$$$$$$$$$$",
"$$$$$$$$$$$$$$$$$$O@OO$$$$@$$$$$",
"$$$$$$$$$OOOOOOOOO@@OO$$$OOOO$$$",
"$$$$$$OOO@@@@@@O@@@@OOO$O@@O$$$$",
"$$$$OOO@@@@@@@@@@@@OOOOO@@@OO$$$",
"$$$OO$OO@@@@@@@@@@OOOO@@@OOOOO$$",
"$$$O$$O@@@@@@@OO@OOOOO@@OOOOOOO$",
"$$$$OO@@@@@@@OOOOOOOOO@OOOOOOOO$",
"$$$OO@@@@@@@@OOOOOOOOOOOOOO.OOOO",
"$$$O@@@@@@@@@OOO@@@@@@OOOO..OOOO",
"$$$O@@@@@OOOOOO@@@@@@@..OO.....$",
"$$OO@@@OOOOO@@@@@@@@@@...O......",
"$$OOOOOOOOO@@@@@@@@OO...........",
"$$OOOOOOOO@@@@@@@@O............$",
"$$$OOOOO@@@@@@@@OO............ $",
"$$@OOOOO@@@OO@@OO............  $",
"$$$OOOOOOOOO..OO......  ....  $$",
"$$$$ O...... ........    ...  $$",
"$$$$  .....   ..  ..    ..    $$",
"$$$$   ..    ....            $$$",
"$$$$$        .               $$$",
"$$$##                       ##$$",
"$$####                    ####$$",
"$$###o#o               #######$$",
"$$###+XX+####################$$$",
"$$$$$##################$$$$$$$$$",
"$$$$$$$$$$$$$$$$$$$$$$$$$$$$$$$$",
"$$$$$$$$$$$$$$$$$$$$$$$$$$$$$$$$"
};
