/* XPM */
static char *f116ad79481c4ed4d5633a32f2db8ac05jdWodIrWUl0gzit[] = {
/* columns rows colors chars-per-pixel */
"32 32 10 1 ",
"  c #1C1117",
". c #1F492B",
"X c #2E6D31",
"o c #DA4E38",
"O c #9F294E",
"+ c #529740",
"@ c #70A853",
"# c #AA8D7A",
"$ c #D3BFA9",
"% c #FDF7ED",
/* pixels */
"@@@@@@@@@@@@@@@@@@@@@@@@@@@@@@@@",
"@@@@@@@@@@@@@@@@@@@@@@@@@@@@@@@@",
"@@@@@@@@@@@@@@@@@@@@@@@@@@@@@@@@",
"@@@@@@@@@@@@@@@@@@@@@@@@@@@@@@@@",
"@@@@@@@@@@@@@@@@@@@@@@@@@@@@@@@@",
"@@@@@@@@@@@@@        @@@@@+@@@@@",
"@@@@@@@@@@@  OOoooooo  @@+@+@@@@",
"@@@@@@XXX  OOOoo%oooooo  @+@@@@@",
"@@@@@@@. OOOooooooooo%ooo @@@@@@",
"@@@@@@@@ OO%ooooooooooo%o @@@@@@",
"@@@@@@@ OOooooooo%oooooooo @@@@@",
"@@@@@@+ O$ooo%oooooo%ooooo @@@@@",
"@@@@@@@ OOOooooooooooo%ooo @@@@@",
"@@@@@@@@  OOOooooo%ooooo  @@@@@@",
"@@@@@++@@@              @@@@@@@@",
"@@@@++++@@@@ ##%%%%% @@@@@@@@@@@",
"@@@++++++@+ ##%  %%  @@@@@@@@@@@",
"@@@++++++++ #%%  %%  @@@@@@@@@@@",
"@@++++++++ #%%%$$%%$$ @@@@X@@@@@",
"@++++++++ ##%%%%%%%%%% @@XX@@@@@",
"@@+++++++ #%%%%%%%%%%% @XX@@@@@@",
"@@++++++ ##%%%%%%%%%%%% .+@@@@@@",
"@@++++++ ##%%%%%%%%%%%% ++@@@@@@",
"@@@+++++ ##%%%%%%%%%%%% @@@@@@@@",
"@@+++++ ###%%%%%%%%%%%%% @@@@@@@",
"@@+++++ ###%%%%%%%%%%%%% @@@@@@@",
"@@@++++ ###%%%%%%%%%%%%% @@@@@@@",
"@@@++X+ ##%%%%%%%%%%%%%% @@@@@@@",
"@@@+++. ###%%%%%%%%%%%%% @@@@@@@",
"@@@@++++ ##$%%%%%%%%%%% @@@@@@@@",
"@@@@@@@++ ##$$    $$$$ @@@@@@@@@",
"@@@@@@@@++    @@++    @@@@@@@@@@"
};
