/* XPM */
static char *e7e478e9b2924c1cd000317c0d20c734pdRV3aPZokOh6vul[] = {
/* columns rows colors chars-per-pixel */
"32 32 10 1 ",
"  c #1C1117",
". c #1F492B",
"X c #2E6D31",
"o c #DA4E38",
"O c #9F294E",
"+ c #529740",
"@ c #70A853",
"# c #AA8D7A",
"$ c #D3BFA9",
"% c #FDF7ED",
/* pixels */
"@@@@@@@@@@@@@@@@@@@@@@@@@@@@@@@@",
"@@@@@@@@@@@@@@@@@@@@@@@@@@@@@@@@",
"@@@@@@@@@@@@@@@@@@@@@@@@@@@@@@@@",
"@@@@@@@@@@@@@@@@@@@@@@@@@@@@@@@@",
"@@@@@@@@@@@@@@@@@@@@@@@@@@@@@@@@",
"@@@@@@@@@@@@@@@@@@@@@@@@@@+@@@@@",
"@@@@@@@@@@@@@@@@@@@@@@@@@+@+@@@@",
"@@@@@@XXX@@@@        @@@@@+@@@@@",
"@@@@@@@.XX@  OOoooooo  @@@@@@@@@",
"@@@@@@@@.  OOOoo%oooooo  @@@@@@@",
"@@@@@@@+ OOOooooooooo%ooo @@@@@@",
"@@@@@@++ OO%ooooooooooo%o @@@@@@",
"@@@@@@@ OOooooooo%oooooooo @@@@@",
"@@@@@@@ O$ooo%oooooo%ooooo @@@@@",
"@@@@@@@ OOOooooooooooo%ooo @@@@@",
"@@@@@@@@  OOOooooo%ooooo  @@@@@@",
"@@@@+++++@              @@@@@@@@",
"@@@++++++++@ ##%%%%% @@@@@@@@@@@",
"@@+++++++++ ##%  %%  @@@@@X@@@@@",
"@@+++++++++ #%%  %%  @@@@XX@@@@@",
"@@@+++++++ #%%%$$%%$$ X@XX@@@@@@",
"@@@@@++++ ##%%%%%%%%%% +.+@@@@@@",
"@@@@+++++ #%%%%%%%%%%% +++@@@@@@",
"@@@@++++ ##%%%%%%%%%%%% @@@@@@@@",
"@@@@++++ ##%%%%%%%%%%%% @@@@@@@@",
"@@@@@+++ ##%%%%%%%%%%%% @@@@@@@@",
"@@@@@++ ###%%%%%%%%%%%%% @@@@@@@",
"@@@@@X ####%%%%%%%%%%%%%% @@@@@@",
"@@@@@ ####%%%%%%%%%%%%%%%% @@@@@",
"@@@@@ #####%%%%%%%%%%%%%%% @@@@@",
"@@@@@ #####$%%%%%%%%%%%%%% @@@@@",
"@@@@@@                    @@@@@@"
};
