/* XPM */
static char *d0e126d123064f0abe989ffec4bafa5aLrfBwfwDFBh7lbzb[] = {
/* columns rows colors chars-per-pixel */
"32 32 5 1 ",
"  c #70A853",
". c #529740",
"X c #2E6D31",
"o c #1F492B",
"O c white",
/* pixels */
"                                ",
"                                ",
"                                ",
"                                ",
"                                ",
"                          .     ",
"                         . .    ",
"      XXX                 .     ",
"       oXX  XX                  ",
"        oX XX                   ",
"       ..oXo                    ",
"      ....o.                    ",
"         ...                    ",
"                                ",
"                                ",
"                                ",
"                                ",
"                                ",
"   .               X      X     ",
"  . .               X    XX     ",
"   .                o X XX      ",
"                   .oXo.o.      ",
"                    ......      ",
"                                ",
"                                ",
"                                ",
"        X                       ",
"     X X                        ",
"     .oo.                       ",
"                                ",
"                                ",
"                                "
};
