/* XPM */
static char *_eaa72c004c94bfea8ecf5bb23a091bdoAhR2dfMnryL8VY0[] = {
/* columns rows colors chars-per-pixel */
"32 32 9 1 ",
"  c #423934",
". c #1F492B",
"X c #2E6D31",
"o c #5A4E44",
"O c #796755",
"+ c #529740",
"@ c #6CA351",
"# c #70A853",
"$ c #A08662",
/* pixels */
"#####   #       #      #   #####",
"#### OOO oOOOOoo oooOOO OOO ####",
"### oO$OOO$$$$OOoOOO$$$oO$Oo ###",
"### oO$$$$$$$$$$O$$$$$$$$$Oo ###",
"### oO$$$$$$$$$$$$$$$$$$$$Oo ###",
"###  o$$$$$$$$$$$$$$$$$$$$o  ###",
"####  $$$$$$$$$$$$$$$$$$$$  ####",
"###  O$$$$$$$$$$$$$$$$$$$$O  ###",
"### O$$$$$$$$$$$$$$$$$$$$$$O ###",
"### O$$$$$$$$$$$$$$$$$$$$$$O ###",
"### o$$$$$$$$$$$$$$$$$$$$$$o ###",
"### o$$$$$$$$$$$$$$$$$$$$$$o ###",
"### oO$$$$$$$$$$$$$$$$$$$$Oo ###",
"### oO$$$$$$$$$$$$$$$$$$$$Oo ###",
"###  o$$$$$$$$$$$$$$$$$$$$o  ###",
"####  $$$$$$$$$$$$$$$$$$$$  ####",
"#### $$$$$$$$$$$$$$$$$$$$$  ####",
"### o$$$$$$$$$$$$$$$$$$$$$OO ###",
"### oO$$$$$$$$$$$$$$$$$$$$OO ###",
"##+ oO$$$$$$$$$$$$$$$$$$$$Oo ###",
"### oO$$$$$$$$$$$$$$$$$$$$Oo ###",
"### oOO$$$$o$$$$$oO$$o $$OO  ###",
"###  oOOOOO o$$OOO OOo OO o ####",
"### o  oOOo oOOOoo oOo   O   ###",
"### oo    O  OOoo  ooo OOOOo ###",
"#### o oOO   oO       ooOooo ###",
"##XXXo oooo o  oOo Oo  oooo  ###",
"###.XX  XX   ooooo ooo  Xoo ###X",
"####.X XX###      # o ## X ###XX",
"###++.X.@################.#X#XX#",
"##++++.+################+.X.+.+#",
"#####+++#################++++++#"
};
