/* XPM */
static char *_39199f41b704530f5baaeab4ebddc76xfzkrqgRM5BNN2Mf[] = {
/* columns rows colors chars-per-pixel */
"32 32 9 1 ",
"  c #423934",
". c #1F492B",
"X c #2E6D31",
"o c #366034",
"O c #5A4E44",
"+ c #796755",
"@ c #529740",
"# c #70A853",
"$ c #A08662",
/* pixels */
"$$$$$$$$$$$$$$$$$$$$$$$$$$$$$$$$",
"$$$$$$$$$$$$$$$$$$$$$$$$$$$$$$$$",
"$$$$$$$$$$$$$$$$$$$$$$$$$$$$$$$$",
"$$$$$$$$$$$$$$$$$$$$$$$$$$$$$$$$",
"$$$$$$$$$$$$$$$$$$$$$$$$$$$$$$$$",
"$$$$$$$$$$$$$$$$$$$$$$$$$$$$$$$$",
"$$$$$$$$$$$$$$$$$$$$$$$$$$$$$$$$",
"$$$$$$$$$$$$$$$$$$$$$$$$$$$$$$$$",
"$$$$$$$$$$$$$$$$$$$$$$$$$$$$$$$$",
"$$$$$$$$$$$$$$$$$$$$$$$$$$$$$$$$",
"$$$$$$$$$$$$$$$$$$$$$$$$$$$$$$$$",
"$$$$$$$$$$$$$$$$$$$$$$$$$$$$$$$$",
"$$$$$$$$$$$$$$$$$$$$$$$$$$$$$$$$",
"$$$$$$$$$$$$$$$$$$$$$$$$$$$$$$$$",
"$$$$$$$$$$$$$$$$$$$$$$$$$$$$$$$$",
"$$$$$$$$$$$$$$$$$$$$$$$$$$$$$$$$",
"$$$$$$$$$$$$$$$$$$$$$$$$$$$$$$$$",
"$$$$$$$$$$$$$$$$$$$$$$$$$$$$$$$$",
"$$$$$$$$$$$$$$$$$$$$$$$$$$$$$$$$",
"$$$$$$$$$$$$$$$$$$$$$$$$$$$$$$$$",
"$$$$$$$$$$$$$$$$$$$$$$$$$$$$$$$$",
"$$++ $$$$$$ $$$+O $$$$$ $$$$ $$$",
"+++O +$$$++ ++++O +$$$+ ++OO O++",
"++OO+XX++++ ++++O  +++  ++OO  O+",
"OO  O+.+++O ++++O  OOO OOOO +  O",
"+++  OO.OO  O++O  +   +     +O +",
"+++ XX . X  OOOO O+++++O O++++ +",
"OOO X.X..X        O+++XO  O++X  ",
"   @@.X.  ###  ###     X##  XX##",
"####@@..@##############.#X#XX###",
"#####@@o##############@.X.@.@###",
"#######################@@@@@@###"
};
