/* XPM */
static char *c186a0d4f6544b00ad58fad48acb7d9c5GdcO40GRwSLxL6O[] = {
/* columns rows colors chars-per-pixel */
"32 32 15 1 ",
"  c #1C1117",
". c #241729",
"X c #1F492B",
"o c #2E6D31",
"O c #DA4E38",
"+ c #9F294E",
"@ c #529740",
"# c #64A14B",
"$ c #69A34E",
"% c #6AA44F",
"& c #6EA752",
"* c #70A853",
"= c #AA8D7A",
"- c #D3BFA9",
"; c #FDF7ED",
/* pixels */
"********************************",
"********************************",
"********************************",
"********************************",
"********************************",
"**************************@*****",
"*************************@*@****",
"******ooo*****    ********@*****",
"*******Xoo**  +OOO  ************",
"********Xo* ++O;OOOO ***********",
"*******@@X ;+OOOOO;OO **********",
"******@@@ ++OO;OOOOO;O *********",
"********* ++;OOOO;OOOO *********",
"********** +++OOOOOOO **********",
"***********          ***********",
"************ =;;;;; ************",
"****&&%#$*** =..;;. ************",
"****&**%**** =..;;. ************",
"***@*******  =;;;;;o *****o*****",
"**@*@****** --    --o****oo*****",
"***@*******    **   X*o*oo******",
"*******************@XoX@X@******",
"********************@@@@@@******",
"********************************",
"********************************",
"********************************",
"********o***********************",
"*****o*o************************",
"*****@XX@***********************",
"********************************",
"********************************",
"********************************"
};
